<svg width="98" height="31" viewBox="0 0 98 31" fill="none" xmlns="http://www.w3.org/2000/svg">
<path d="M0.585227 30V26.1932L10.6847 16.2926C11.6506 15.3172 12.4555 14.4508 13.0994 13.6932C13.7434 12.9356 14.2263 12.2017 14.5483 11.4915C14.8703 10.7812 15.0312 10.0237 15.0312 9.21875C15.0312 8.30019 14.8229 7.5142 14.4062 6.8608C13.9896 6.19792 13.4167 5.68655 12.6875 5.3267C11.9583 4.96686 11.1297 4.78693 10.2017 4.78693C9.24527 4.78693 8.4072 4.98579 7.6875 5.38352C6.9678 5.77178 6.40909 6.32576 6.01136 7.04545C5.62311 7.76515 5.42898 8.62216 5.42898 9.61648H0.414773C0.414773 7.76989 0.836174 6.16477 1.67898 4.80114C2.52178 3.4375 3.68182 2.38163 5.15909 1.63352C6.64583 0.885416 8.35038 0.511363 10.2727 0.511363C12.2235 0.511363 13.9375 0.875946 15.4148 1.60511C16.892 2.33428 18.0379 3.33333 18.8523 4.60227C19.6761 5.87121 20.0881 7.32007 20.0881 8.94886C20.0881 10.0379 19.8797 11.108 19.4631 12.1591C19.0464 13.2102 18.3125 14.375 17.2614 15.6534C16.2197 16.9318 14.7566 18.4801 12.8722 20.2983L7.85795 25.3977V25.5966H20.5284V30H0.585227ZM35.8693 30.3977C33.8239 30.3977 32.0057 30.0473 30.4148 29.3466C28.8333 28.6458 27.5833 27.6705 26.6648 26.4205C25.7462 25.1705 25.2585 23.7263 25.2017 22.0881H30.5426C30.59 22.8741 30.8504 23.5606 31.3239 24.1477C31.7973 24.7254 32.4271 25.1752 33.2131 25.4972C33.9991 25.8191 34.8797 25.9801 35.8551 25.9801C36.8968 25.9801 37.8201 25.8002 38.625 25.4403C39.4299 25.071 40.0597 24.5597 40.5142 23.9062C40.9688 23.2528 41.1913 22.5 41.1818 21.6477C41.1913 20.767 40.964 19.9905 40.5 19.3182C40.036 18.6458 39.3636 18.1203 38.483 17.7415C37.6117 17.3627 36.5606 17.1733 35.3295 17.1733H32.7585V13.1108H35.3295C36.3428 13.1108 37.2282 12.9356 37.9858 12.5852C38.7528 12.2348 39.3542 11.7424 39.7898 11.108C40.2254 10.464 40.4384 9.72064 40.429 8.87784C40.4384 8.05398 40.2538 7.33902 39.875 6.73295C39.5057 6.11742 38.9801 5.6392 38.2983 5.2983C37.6259 4.95739 36.8352 4.78693 35.9261 4.78693C35.036 4.78693 34.2121 4.94792 33.4545 5.26989C32.697 5.59186 32.0862 6.05114 31.6222 6.64773C31.1581 7.23485 30.9119 7.93561 30.8835 8.75H25.8125C25.8504 7.12121 26.3191 5.69129 27.2188 4.46023C28.1278 3.2197 29.34 2.25379 30.8551 1.5625C32.3703 0.861742 34.0701 0.511363 35.9545 0.511363C37.8958 0.511363 39.5814 0.875946 41.0114 1.60511C42.4508 2.32481 43.5634 3.29545 44.3494 4.51705C45.1354 5.73864 45.5284 7.08807 45.5284 8.56534C45.5379 10.2036 45.0549 11.5767 44.0795 12.6847C43.1136 13.7926 41.8447 14.517 40.2727 14.858V15.0852C42.3182 15.3693 43.8854 16.1269 44.9744 17.358C46.0729 18.5795 46.6174 20.0994 46.608 21.9176C46.608 23.5464 46.1439 25.0047 45.2159 26.2926C44.2973 27.571 43.0284 28.5748 41.4091 29.304C39.7992 30.0331 37.9527 30.3977 35.8693 30.3977ZM61.5831 0.511363C62.9751 0.520833 64.3293 0.767045 65.6456 1.25C66.9714 1.72348 68.1645 2.5 69.2251 3.57955C70.2857 4.64962 71.1286 6.08428 71.7536 7.88352C72.3786 9.68277 72.6911 11.9081 72.6911 14.5597C72.7005 17.0597 72.4354 19.2945 71.8956 21.2642C71.3653 23.2244 70.603 24.8816 69.6087 26.2358C68.6143 27.59 67.4164 28.6222 66.0149 29.3324C64.6134 30.0426 63.0367 30.3977 61.2848 30.3977C59.4477 30.3977 57.8189 30.0379 56.3984 29.3182C54.9875 28.5985 53.8464 27.6136 52.9751 26.3636C52.1039 25.1136 51.5689 23.6837 51.37 22.0739H56.5547C56.8198 23.2292 57.3596 24.1477 58.174 24.8295C58.9979 25.5019 60.0348 25.8381 61.2848 25.8381C63.3018 25.8381 64.8549 24.9621 65.9439 23.2102C67.0329 21.4583 67.5774 19.0246 67.5774 15.9091H67.3786C66.9145 16.7424 66.3132 17.4621 65.5746 18.0682C64.8359 18.6648 63.9979 19.1241 63.0604 19.446C62.1323 19.768 61.1475 19.929 60.1058 19.929C58.4013 19.929 56.8672 19.5218 55.5036 18.7074C54.1494 17.893 53.0746 16.7756 52.2791 15.3551C51.4931 13.9347 51.0954 12.3106 51.0859 10.483C51.0859 8.58901 51.5215 6.8892 52.3928 5.38352C53.2734 3.86837 54.4998 2.67519 56.0717 1.80398C57.6437 0.923294 59.4808 0.492423 61.5831 0.511363ZM61.5973 4.77273C60.5746 4.77273 59.6513 5.02367 58.8274 5.52557C58.013 6.01799 57.3691 6.69034 56.8956 7.54261C56.4316 8.38542 56.1996 9.32765 56.1996 10.3693C56.209 11.4015 56.4411 12.339 56.8956 13.1818C57.3596 14.0246 57.9893 14.6922 58.7848 15.1847C59.5897 15.6771 60.5083 15.9233 61.5405 15.9233C62.3075 15.9233 63.0225 15.7765 63.6854 15.483C64.3482 15.1894 64.9259 14.7822 65.4183 14.2614C65.9202 13.7311 66.3085 13.1297 66.5831 12.4574C66.8672 11.785 67.0045 11.0748 66.995 10.3267C66.995 9.33239 66.7583 8.41383 66.2848 7.57102C65.8208 6.72822 65.1816 6.05114 64.3672 5.53977C63.5623 5.02841 62.639 4.77273 61.5973 4.77273ZM87.5348 30.3977C85.6409 30.3977 83.9458 30.0426 82.4496 29.3324C80.9534 28.6127 79.7649 27.6278 78.8842 26.3778C78.013 25.1278 77.549 23.6979 77.4922 22.0881H82.6058C82.7005 23.2812 83.2166 24.2566 84.1541 25.0142C85.0916 25.7623 86.2185 26.1364 87.5348 26.1364C88.567 26.1364 89.4856 25.8996 90.2905 25.4261C91.0954 24.9527 91.7299 24.2945 92.1939 23.4517C92.6579 22.6089 92.8852 21.6477 92.8757 20.5682C92.8852 19.4697 92.6532 18.4943 92.1797 17.642C91.7062 16.7898 91.0575 16.1222 90.2337 15.6392C89.4098 15.1468 88.4628 14.9006 87.3928 14.9006C86.5215 14.8911 85.6645 15.0521 84.8217 15.3835C83.9789 15.715 83.3113 16.1506 82.8189 16.6903L78.0604 15.9091L79.5803 0.90909H96.4553V5.3125H83.9411L83.103 13.0256H83.2734C83.8132 12.3911 84.5755 11.8655 85.5604 11.4489C86.5452 11.0227 87.6248 10.8097 88.799 10.8097C90.5604 10.8097 92.1323 11.2263 93.5149 12.0597C94.8975 12.8835 95.9865 14.0199 96.782 15.4688C97.5774 16.9176 97.9751 18.5748 97.9751 20.4403C97.9751 22.3627 97.5301 24.0767 96.6399 25.5824C95.7592 27.0786 94.5329 28.2576 92.9609 29.1193C91.3984 29.9716 89.5897 30.3977 87.5348 30.3977Z" fill="#161819"/>
</svg>
