<svg width="219" height="48" viewBox="0 0 219 48" fill="none" xmlns="http://www.w3.org/2000/svg">
<path d="M12.6847 9.51136C14.0767 9.52083 15.4309 9.76705 16.7472 10.25C18.0729 10.7235 19.2661 11.5 20.3267 12.5795C21.3873 13.6496 22.2301 15.0843 22.8551 16.8835C23.4801 18.6828 23.7926 20.9081 23.7926 23.5597C23.8021 26.0597 23.5369 28.2945 22.9972 30.2642C22.4669 32.2244 21.7045 33.8816 20.7102 35.2358C19.7159 36.59 18.518 37.6222 17.1165 38.3324C15.715 39.0426 14.1383 39.3977 12.3864 39.3977C10.5492 39.3977 8.92045 39.0379 7.5 38.3182C6.08902 37.5985 4.94792 36.6136 4.0767 35.3636C3.20549 34.1136 2.67045 32.6837 2.47159 31.0739H7.65625C7.9214 32.2292 8.46117 33.1477 9.27557 33.8295C10.0994 34.5019 11.1364 34.8381 12.3864 34.8381C14.4034 34.8381 15.9564 33.9621 17.0455 32.2102C18.1345 30.4583 18.679 28.0246 18.679 24.9091H18.4801C18.0161 25.7424 17.4148 26.4621 16.6761 27.0682C15.9375 27.6648 15.0994 28.1241 14.1619 28.446C13.2339 28.768 12.2491 28.929 11.2074 28.929C9.50284 28.929 7.96875 28.5218 6.60511 27.7074C5.25095 26.893 4.17614 25.7756 3.38068 24.3551C2.5947 22.9347 2.19697 21.3106 2.1875 19.483C2.1875 17.589 2.62311 15.8892 3.49432 14.3835C4.375 12.8684 5.60133 11.6752 7.1733 10.804C8.74527 9.92329 10.5824 9.49242 12.6847 9.51136ZM12.6989 13.7727C11.6761 13.7727 10.7528 14.0237 9.92898 14.5256C9.11458 15.018 8.47064 15.6903 7.99716 16.5426C7.53314 17.3854 7.30114 18.3277 7.30114 19.3693C7.31061 20.4015 7.54261 21.339 7.99716 22.1818C8.46117 23.0246 9.09091 23.6922 9.88636 24.1847C10.6913 24.6771 11.6098 24.9233 12.642 24.9233C13.4091 24.9233 14.1241 24.7765 14.7869 24.483C15.4498 24.1894 16.0275 23.7822 16.5199 23.2614C17.0218 22.7311 17.41 22.1297 17.6847 21.4574C17.9688 20.785 18.1061 20.0748 18.0966 19.3267C18.0966 18.3324 17.8598 17.4138 17.3864 16.571C16.9223 15.7282 16.2831 15.0511 15.4688 14.5398C14.6638 14.0284 13.7405 13.7727 12.6989 13.7727ZM28.5227 39V35.1932L38.6222 25.2926C39.5881 24.3172 40.393 23.4508 41.0369 22.6932C41.6809 21.9356 42.1638 21.2017 42.4858 20.4915C42.8078 19.7812 42.9688 19.0237 42.9688 18.2188C42.9688 17.3002 42.7604 16.5142 42.3438 15.8608C41.9271 15.1979 41.3542 14.6866 40.625 14.3267C39.8958 13.9669 39.0672 13.7869 38.1392 13.7869C37.1828 13.7869 36.3447 13.9858 35.625 14.3835C34.9053 14.7718 34.3466 15.3258 33.9489 16.0455C33.5606 16.7652 33.3665 17.6222 33.3665 18.6165H28.3523C28.3523 16.7699 28.7737 15.1648 29.6165 13.8011C30.4593 12.4375 31.6193 11.3816 33.0966 10.6335C34.5833 9.88542 36.2879 9.51136 38.2102 9.51136C40.161 9.51136 41.875 9.87595 43.3523 10.6051C44.8295 11.3343 45.9754 12.3333 46.7898 13.6023C47.6136 14.8712 48.0256 16.3201 48.0256 17.9489C48.0256 19.0379 47.8172 20.108 47.4006 21.1591C46.9839 22.2102 46.25 23.375 45.1989 24.6534C44.1572 25.9318 42.6941 27.4801 40.8097 29.2983L35.7955 34.3977V34.5966H48.4659V39H28.5227ZM56.5909 39.3125C55.7292 39.3125 54.9905 39.0095 54.375 38.4034C53.7595 37.7973 53.4564 37.0587 53.4659 36.1875C53.4564 35.3352 53.7595 34.6061 54.375 34C54.9905 33.3939 55.7292 33.0909 56.5909 33.0909C57.4242 33.0909 58.1487 33.3939 58.7642 34C59.3892 34.6061 59.7064 35.3352 59.7159 36.1875C59.7064 36.7652 59.5549 37.2907 59.2614 37.7642C58.9773 38.2377 58.5985 38.6165 58.125 38.9006C57.661 39.1752 57.1496 39.3125 56.5909 39.3125ZM74.2152 39.3977C72.1035 39.3977 70.2285 39.0426 68.5902 38.3324C66.9614 37.6222 65.683 36.6515 64.755 35.4205C63.8364 34.1799 63.3819 32.7737 63.3913 31.2017C63.3819 29.9801 63.647 28.858 64.1868 27.8352C64.7266 26.8125 65.4557 25.9602 66.3743 25.2784C67.3023 24.5871 68.3345 24.1468 69.4709 23.9574V23.7585C67.9747 23.4271 66.7625 22.6648 65.8345 21.4716C64.916 20.2689 64.4614 18.8816 64.4709 17.3097C64.4614 15.8134 64.8781 14.4782 65.7209 13.304C66.5637 12.1297 67.719 11.2064 69.1868 10.5341C70.6546 9.85227 72.3307 9.51136 74.2152 9.51136C76.0807 9.51136 77.7427 9.85227 79.201 10.5341C80.6688 11.2064 81.8241 12.1297 82.6669 13.304C83.5192 14.4782 83.9453 15.8134 83.9453 17.3097C83.9453 18.8816 83.4766 20.2689 82.5391 21.4716C81.611 22.6648 80.4131 23.4271 78.9453 23.7585V23.9574C80.0817 24.1468 81.1044 24.5871 82.0135 25.2784C82.9321 25.9602 83.6612 26.8125 84.201 27.8352C84.7502 28.858 85.0249 29.9801 85.0249 31.2017C85.0249 32.7737 84.5608 34.1799 83.6328 35.4205C82.7048 36.6515 81.4264 37.6222 79.7976 38.3324C78.1783 39.0426 76.3175 39.3977 74.2152 39.3977ZM74.2152 35.3352C75.3042 35.3352 76.2512 35.1506 77.0561 34.7812C77.861 34.4025 78.486 33.8722 78.9311 33.1903C79.3762 32.5085 79.6035 31.7225 79.6129 30.8324C79.6035 29.9044 79.362 29.0852 78.8885 28.375C78.4245 27.6553 77.7853 27.0919 76.9709 26.6847C76.166 26.2775 75.2474 26.0739 74.2152 26.0739C73.1735 26.0739 72.2455 26.2775 71.4311 26.6847C70.6167 27.0919 69.9728 27.6553 69.4993 28.375C69.0353 29.0852 68.808 29.9044 68.8175 30.8324C68.808 31.7225 69.0258 32.5085 69.4709 33.1903C69.916 33.8627 70.541 34.3883 71.3459 34.767C72.1603 35.1458 73.1167 35.3352 74.2152 35.3352ZM74.2152 22.0824C75.1054 22.0824 75.8913 21.9025 76.5732 21.5426C77.2644 21.1828 77.8089 20.6809 78.2067 20.0369C78.6044 19.393 78.808 18.6496 78.8175 17.8068C78.808 16.9735 78.6091 16.2443 78.2209 15.6193C77.8326 14.9848 77.2929 14.4972 76.6016 14.1562C75.9103 13.8059 75.1148 13.6307 74.2152 13.6307C73.2966 13.6307 72.487 13.8059 71.7862 14.1562C71.0949 14.4972 70.5552 14.9848 70.1669 15.6193C69.7881 16.2443 69.6035 16.9735 69.6129 17.8068C69.6035 18.6496 69.7929 19.393 70.1811 20.0369C70.5788 20.6714 71.1233 21.1733 71.8146 21.5426C72.5154 21.9025 73.3156 22.0824 74.2152 22.0824ZM99.8082 39.3977C97.9143 39.3977 96.2192 39.0426 94.723 38.3324C93.2268 37.6127 92.0384 36.6278 91.1577 35.3778C90.2865 34.1278 89.8224 32.6979 89.7656 31.0881H94.8793C94.974 32.2812 95.4901 33.2566 96.4276 34.0142C97.3651 34.7623 98.492 35.1364 99.8082 35.1364C100.84 35.1364 101.759 34.8996 102.564 34.4261C103.369 33.9527 104.003 33.2945 104.467 32.4517C104.931 31.6089 105.159 30.6477 105.149 29.5682C105.159 28.4697 104.927 27.4943 104.453 26.642C103.98 25.7898 103.331 25.1222 102.507 24.6392C101.683 24.1468 100.736 23.9006 99.6662 23.9006C98.795 23.8911 97.938 24.0521 97.0952 24.3835C96.2524 24.715 95.5848 25.1506 95.0923 25.6903L90.3338 24.9091L91.8537 9.90909H108.729V14.3125H96.2145L95.3764 22.0256H95.5469C96.0866 21.3911 96.849 20.8655 97.8338 20.4489C98.8187 20.0227 99.8982 19.8097 101.072 19.8097C102.834 19.8097 104.406 20.2263 105.788 21.0597C107.171 21.8835 108.26 23.0199 109.055 24.4688C109.851 25.9176 110.249 27.5748 110.249 29.4403C110.249 31.3627 109.804 33.0767 108.913 34.5824C108.033 36.0786 106.806 37.2576 105.234 38.1193C103.672 38.9716 101.863 39.3977 99.8082 39.3977ZM130.561 33.5455V32.0114C130.561 30.8845 130.798 29.8475 131.271 28.9006C131.754 27.9536 132.455 27.1913 133.374 26.6136C134.292 26.036 135.405 25.7472 136.712 25.7472C138.056 25.7472 139.183 26.036 140.092 26.6136C141.001 27.1818 141.688 27.9394 142.152 28.8864C142.625 29.8333 142.862 30.875 142.862 32.0114V33.5455C142.862 34.6723 142.625 35.7093 142.152 36.6562C141.679 37.6032 140.982 38.3655 140.064 38.9432C139.155 39.5208 138.037 39.8097 136.712 39.8097C135.386 39.8097 134.264 39.5208 133.345 38.9432C132.427 38.3655 131.731 37.6032 131.257 36.6562C130.793 35.7093 130.561 34.6723 130.561 33.5455ZM134.268 32.0114V33.5455C134.268 34.2936 134.448 34.9801 134.808 35.6051C135.168 36.2301 135.803 36.5426 136.712 36.5426C137.63 36.5426 138.26 36.2348 138.601 35.6193C138.951 34.9943 139.126 34.303 139.126 33.5455V32.0114C139.126 31.2538 138.961 30.5625 138.629 29.9375C138.298 29.303 137.659 28.9858 136.712 28.9858C135.821 28.9858 135.192 29.303 134.822 29.9375C134.453 30.5625 134.268 31.2538 134.268 32.0114ZM115.774 16.8977V15.3636C115.774 14.2273 116.016 13.1856 116.499 12.2386C116.982 11.2917 117.682 10.5341 118.601 9.96591C119.519 9.38826 120.632 9.09943 121.939 9.09943C123.274 9.09943 124.396 9.38826 125.305 9.96591C126.224 10.5341 126.915 11.2917 127.379 12.2386C127.843 13.1856 128.075 14.2273 128.075 15.3636V16.8977C128.075 18.0341 127.839 19.0758 127.365 20.0227C126.901 20.9602 126.21 21.7131 125.291 22.2812C124.373 22.8494 123.255 23.1335 121.939 23.1335C120.604 23.1335 119.477 22.8494 118.558 22.2812C117.649 21.7131 116.958 20.9555 116.484 20.0085C116.011 19.0616 115.774 18.0246 115.774 16.8977ZM119.51 15.3636V16.8977C119.51 17.6553 119.685 18.3466 120.036 18.9716C120.395 19.5871 121.03 19.8949 121.939 19.8949C122.848 19.8949 123.473 19.5871 123.814 18.9716C124.164 18.3466 124.339 17.6553 124.339 16.8977V15.3636C124.339 14.6061 124.174 13.9148 123.842 13.2898C123.511 12.6553 122.876 12.3381 121.939 12.3381C121.039 12.3381 120.41 12.6553 120.05 13.2898C119.69 13.9242 119.51 14.6155 119.51 15.3636ZM117.393 39L137.393 9.90909H140.945L120.945 39H117.393Z" fill="#161819"/>
<rect x="159" y="10" width="60" height="28" rx="14" fill="#EBFDEF"/>
<path d="M180.646 28V27.0483L183.171 24.5732C183.413 24.3293 183.614 24.1127 183.775 23.9233C183.936 23.7339 184.057 23.5504 184.137 23.3729C184.218 23.1953 184.258 23.0059 184.258 22.8047C184.258 22.575 184.206 22.3786 184.102 22.2152C183.997 22.0495 183.854 21.9216 183.672 21.8317C183.49 21.7417 183.282 21.6967 183.05 21.6967C182.811 21.6967 182.602 21.7464 182.422 21.8459C182.242 21.9429 182.102 22.0814 182.003 22.2614C181.906 22.4413 181.857 22.6555 181.857 22.9041H180.604C180.604 22.4425 180.709 22.0412 180.92 21.7003C181.13 21.3594 181.42 21.0954 181.79 20.9084C182.161 20.7214 182.588 20.6278 183.068 20.6278C183.556 20.6278 183.984 20.719 184.354 20.9013C184.723 21.0836 185.009 21.3333 185.213 21.6506C185.419 21.9678 185.522 22.33 185.522 22.7372C185.522 23.0095 185.47 23.277 185.366 23.5398C185.262 23.8026 185.078 24.0937 184.815 24.4134C184.555 24.733 184.189 25.12 183.718 25.5746L182.464 26.8494V26.8991H185.632V28H180.646ZM189.545 28.1385C188.961 28.1385 188.459 27.9905 188.04 27.6946C187.623 27.3963 187.302 26.9666 187.077 26.4055C186.855 25.8421 186.744 25.1638 186.744 24.3707C186.746 23.5777 186.858 22.9029 187.081 22.3466C187.306 21.7879 187.627 21.3617 188.043 21.0682C188.462 20.7746 188.963 20.6278 189.545 20.6278C190.128 20.6278 190.629 20.7746 191.048 21.0682C191.467 21.3617 191.787 21.7879 192.01 22.3466C192.235 22.9053 192.347 23.58 192.347 24.3707C192.347 25.1662 192.235 25.8456 192.01 26.4091C191.787 26.9702 191.467 27.3987 191.048 27.6946C190.631 27.9905 190.13 28.1385 189.545 28.1385ZM189.545 27.027C190 27.027 190.359 26.8033 190.621 26.3558C190.887 25.906 191.019 25.2443 191.019 24.3707C191.019 23.7931 190.959 23.3078 190.838 22.9148C190.717 22.5218 190.547 22.2259 190.327 22.027C190.107 21.8258 189.846 21.7251 189.545 21.7251C189.093 21.7251 188.736 21.95 188.473 22.3999C188.21 22.8473 188.078 23.5043 188.075 24.3707C188.073 24.9508 188.131 25.4384 188.249 25.8338C188.37 26.2292 188.54 26.5275 188.761 26.7287C188.981 26.9276 189.242 27.027 189.545 27.027ZM194.05 28.0781C193.835 28.0781 193.65 28.0024 193.496 27.8509C193.342 27.6993 193.266 27.5147 193.269 27.2969C193.266 27.0838 193.342 26.9015 193.496 26.75C193.65 26.5985 193.835 26.5227 194.05 26.5227C194.258 26.5227 194.44 26.5985 194.593 26.75C194.75 26.9015 194.829 27.0838 194.831 27.2969C194.829 27.4413 194.791 27.5727 194.718 27.6911C194.647 27.8094 194.552 27.9041 194.434 27.9751C194.318 28.0438 194.19 28.0781 194.05 28.0781ZM198.585 28.0994C198.111 28.0994 197.688 28.0107 197.314 27.8331C196.94 27.6532 196.642 27.407 196.422 27.0945C196.204 26.782 196.088 26.4245 196.074 26.022H197.353C197.376 26.3203 197.505 26.5642 197.74 26.7536C197.974 26.9406 198.256 27.0341 198.585 27.0341C198.843 27.0341 199.073 26.9749 199.274 26.8565C199.475 26.7382 199.634 26.5736 199.75 26.3629C199.866 26.1522 199.922 25.9119 199.92 25.642C199.922 25.3674 199.864 25.1236 199.746 24.9105C199.628 24.6974 199.466 24.5305 199.26 24.4098C199.054 24.2867 198.817 24.2251 198.549 24.2251C198.332 24.2228 198.117 24.263 197.907 24.3459C197.696 24.4287 197.529 24.5376 197.406 24.6726L196.216 24.4773L196.596 20.7273H200.815V21.8281H197.686L197.477 23.7564H197.52C197.654 23.5978 197.845 23.4664 198.091 23.3622C198.337 23.2557 198.607 23.2024 198.901 23.2024C199.341 23.2024 199.734 23.3066 200.08 23.5149C200.426 23.7209 200.698 24.005 200.897 24.3672C201.096 24.7294 201.195 25.1437 201.195 25.6101C201.195 26.0907 201.084 26.5192 200.861 26.8956C200.641 27.2696 200.334 27.5644 199.941 27.7798C199.551 27.9929 199.099 28.0994 198.585 28.0994ZM206.273 26.6364V26.2528C206.273 25.9711 206.332 25.7119 206.451 25.4751C206.571 25.2384 206.747 25.0478 206.976 24.9034C207.206 24.759 207.484 24.6868 207.811 24.6868C208.147 24.6868 208.429 24.759 208.656 24.9034C208.883 25.0455 209.055 25.2348 209.171 25.4716C209.289 25.7083 209.348 25.9687 209.348 26.2528V26.6364C209.348 26.9181 209.289 27.1773 209.171 27.4141C209.052 27.6508 208.878 27.8414 208.649 27.9858C208.422 28.1302 208.142 28.2024 207.811 28.2024C207.479 28.2024 207.199 28.1302 206.969 27.9858C206.739 27.8414 206.565 27.6508 206.447 27.4141C206.331 27.1773 206.273 26.9181 206.273 26.6364ZM207.2 26.2528V26.6364C207.2 26.8234 207.245 26.995 207.335 27.1513C207.425 27.3075 207.583 27.3857 207.811 27.3857C208.04 27.3857 208.198 27.3087 208.283 27.1548C208.371 26.9986 208.414 26.8258 208.414 26.6364V26.2528C208.414 26.0634 208.373 25.8906 208.29 25.7344C208.207 25.5758 208.047 25.4964 207.811 25.4964C207.588 25.4964 207.431 25.5758 207.338 25.7344C207.246 25.8906 207.2 26.0634 207.2 26.2528ZM202.576 22.4744V22.0909C202.576 21.8068 202.637 21.5464 202.757 21.3097C202.878 21.0729 203.053 20.8835 203.283 20.7415C203.513 20.5971 203.791 20.5249 204.118 20.5249C204.451 20.5249 204.732 20.5971 204.959 20.7415C205.189 20.8835 205.362 21.0729 205.478 21.3097C205.594 21.5464 205.652 21.8068 205.652 22.0909V22.4744C205.652 22.7585 205.592 23.0189 205.474 23.2557C205.358 23.4901 205.185 23.6783 204.956 23.8203C204.726 23.9624 204.447 24.0334 204.118 24.0334C203.784 24.0334 203.502 23.9624 203.272 23.8203C203.045 23.6783 202.872 23.4889 202.754 23.2521C202.636 23.0154 202.576 22.7562 202.576 22.4744ZM203.51 22.0909V22.4744C203.51 22.6638 203.554 22.8366 203.642 22.9929C203.732 23.1468 203.89 23.2237 204.118 23.2237C204.345 23.2237 204.501 23.1468 204.586 22.9929C204.674 22.8366 204.718 22.6638 204.718 22.4744V22.0909C204.718 21.9015 204.676 21.7287 204.593 21.5724C204.511 21.4138 204.352 21.3345 204.118 21.3345C203.893 21.3345 203.735 21.4138 203.645 21.5724C203.555 21.7311 203.51 21.9039 203.51 22.0909ZM202.981 28L207.981 20.7273H208.869L203.869 28H202.981Z" fill="#42AA65"/>
<g clip-path="url(#clip0_1_139)">
<path d="M171.689 20.1279L168.8 23.017C168.718 23.0994 168.672 23.2093 168.672 23.3265C168.672 23.4439 168.718 23.5537 168.8 23.6362L169.062 23.8985C169.145 23.9809 169.255 24.0263 169.372 24.0263C169.489 24.0263 169.603 23.9809 169.685 23.8985L171.374 22.2131L171.374 27.5678C171.374 27.8092 171.563 28 171.805 28L172.176 28C172.417 28 172.625 27.8092 172.625 27.5678L172.625 22.1939L174.324 23.8984C174.406 23.9808 174.513 24.0262 174.631 24.0262C174.748 24.0262 174.856 23.9808 174.939 23.8984L175.2 23.6361C175.283 23.5537 175.328 23.4438 175.328 23.3265C175.328 23.2093 175.282 23.0994 175.2 23.0169L172.311 20.1278C172.228 20.0451 172.117 19.9997 172 20C171.882 19.9997 171.772 20.0451 171.689 20.1279Z" fill="#42AA65"/>
</g>
<defs>
<clipPath id="clip0_1_139">
<rect width="8" height="8" fill="white" transform="translate(168 28) rotate(-90)"/>
</clipPath>
</defs>
</svg>
