<svg width="227" height="48" viewBox="0 0 227 48" fill="none" xmlns="http://www.w3.org/2000/svg">
<path d="M12.6989 39.3977C10.8049 39.3977 9.10985 39.0426 7.61364 38.3324C6.11742 37.6127 4.92898 36.6278 4.0483 35.3778C3.17708 34.1278 2.71307 32.6979 2.65625 31.0881H7.76989C7.86458 32.2812 8.38068 33.2566 9.31818 34.0142C10.2557 34.7623 11.3826 35.1364 12.6989 35.1364C13.7311 35.1364 14.6496 34.8996 15.4545 34.4261C16.2595 33.9527 16.8939 33.2945 17.358 32.4517C17.822 31.6089 18.0492 30.6477 18.0398 29.5682C18.0492 28.4697 17.8172 27.4943 17.3438 26.642C16.8703 25.7898 16.2216 25.1222 15.3977 24.6392C14.5739 24.1468 13.6269 23.9006 12.5568 23.9006C11.6856 23.8911 10.8286 24.0521 9.9858 24.3835C9.14299 24.715 8.47538 25.1506 7.98295 25.6903L3.22443 24.9091L4.74432 9.90909H21.6193V14.3125H9.10511L8.26705 22.0256H8.4375C8.97727 21.3911 9.73958 20.8655 10.7244 20.4489C11.7093 20.0227 12.7888 19.8097 13.9631 19.8097C15.7244 19.8097 17.2964 20.2263 18.679 21.0597C20.0616 21.8835 21.1506 23.0199 21.946 24.4688C22.7415 25.9176 23.1392 27.5748 23.1392 29.4403C23.1392 31.3627 22.6941 33.0767 21.804 34.5824C20.9233 36.0786 19.697 37.2576 18.125 38.1193C16.5625 38.9716 14.7538 39.3977 12.6989 39.3977ZM37.9972 9.51136C39.3892 9.52083 40.7434 9.76705 42.0597 10.25C43.3854 10.7235 44.5786 11.5 45.6392 12.5795C46.6998 13.6496 47.5426 15.0843 48.1676 16.8835C48.7926 18.6828 49.1051 20.9081 49.1051 23.5597C49.1146 26.0597 48.8494 28.2945 48.3097 30.2642C47.7794 32.2244 47.017 33.8816 46.0227 35.2358C45.0284 36.59 43.8305 37.6222 42.429 38.3324C41.0275 39.0426 39.4508 39.3977 37.6989 39.3977C35.8617 39.3977 34.233 39.0379 32.8125 38.3182C31.4015 37.5985 30.2604 36.6136 29.3892 35.3636C28.518 34.1136 27.983 32.6837 27.7841 31.0739H32.9688C33.2339 32.2292 33.7737 33.1477 34.5881 33.8295C35.4119 34.5019 36.4489 34.8381 37.6989 34.8381C39.7159 34.8381 41.2689 33.9621 42.358 32.2102C43.447 30.4583 43.9915 28.0246 43.9915 24.9091H43.7926C43.3286 25.7424 42.7273 26.4621 41.9886 27.0682C41.25 27.6648 40.4119 28.1241 39.4744 28.446C38.5464 28.768 37.5616 28.929 36.5199 28.929C34.8153 28.929 33.2813 28.5218 31.9176 27.7074C30.5634 26.893 29.4886 25.7756 28.6932 24.3551C27.9072 22.9347 27.5095 21.3106 27.5 19.483C27.5 17.589 27.9356 15.8892 28.8068 14.3835C29.6875 12.8684 30.9138 11.6752 32.4858 10.804C34.0578 9.92329 35.8949 9.49242 37.9972 9.51136ZM38.0114 13.7727C36.9886 13.7727 36.0653 14.0237 35.2415 14.5256C34.4271 15.018 33.7831 15.6903 33.3097 16.5426C32.8456 17.3854 32.6136 18.3277 32.6136 19.3693C32.6231 20.4015 32.8551 21.339 33.3097 22.1818C33.7737 23.0246 34.4034 23.6922 35.1989 24.1847C36.0038 24.6771 36.9223 24.9233 37.9545 24.9233C38.7216 24.9233 39.4366 24.7765 40.0994 24.483C40.7623 24.1894 41.34 23.7822 41.8324 23.2614C42.3343 22.7311 42.7225 22.1297 42.9972 21.4574C43.2813 20.785 43.4186 20.0748 43.4091 19.3267C43.4091 18.3324 43.1723 17.4138 42.6989 16.571C42.2348 15.7282 41.5956 15.0511 40.7812 14.5398C39.9763 14.0284 39.053 13.7727 38.0114 13.7727ZM64.2756 39.3977C62.2301 39.3977 60.4119 39.0473 58.821 38.3466C57.2396 37.6458 55.9896 36.6705 55.071 35.4205C54.1525 34.1705 53.6648 32.7263 53.608 31.0881H58.9489C58.9962 31.8741 59.2566 32.5606 59.7301 33.1477C60.2036 33.7254 60.8333 34.1752 61.6193 34.4972C62.4053 34.8191 63.286 34.9801 64.2614 34.9801C65.303 34.9801 66.2263 34.8002 67.0312 34.4403C67.8362 34.071 68.4659 33.5597 68.9205 32.9062C69.375 32.2528 69.5975 31.5 69.5881 30.6477C69.5975 29.767 69.3703 28.9905 68.9062 28.3182C68.4422 27.6458 67.7699 27.1203 66.8892 26.7415C66.018 26.3627 64.9669 26.1733 63.7358 26.1733H61.1648V22.1108H63.7358C64.7491 22.1108 65.6345 21.9356 66.392 21.5852C67.1591 21.2348 67.7604 20.7424 68.196 20.108C68.6316 19.464 68.8447 18.7206 68.8352 17.8778C68.8447 17.054 68.66 16.339 68.2812 15.733C67.9119 15.1174 67.3864 14.6392 66.7045 14.2983C66.0322 13.9574 65.2415 13.7869 64.3324 13.7869C63.4422 13.7869 62.6184 13.9479 61.8608 14.2699C61.1032 14.5919 60.4924 15.0511 60.0284 15.6477C59.5644 16.2348 59.3182 16.9356 59.2898 17.75H54.2188C54.2566 16.1212 54.7254 14.6913 55.625 13.4602C56.5341 12.2197 57.7462 11.2538 59.2614 10.5625C60.7765 9.86174 62.4763 9.51136 64.3608 9.51136C66.3021 9.51136 67.9877 9.87595 69.4176 10.6051C70.857 11.3248 71.9697 12.2955 72.7557 13.517C73.5417 14.7386 73.9347 16.0881 73.9347 17.5653C73.9441 19.2036 73.4612 20.5767 72.4858 21.6847C71.5199 22.7926 70.2509 23.517 68.679 23.858V24.0852C70.7244 24.3693 72.2917 25.1269 73.3807 26.358C74.4792 27.5795 75.0237 29.0994 75.0142 30.9176C75.0142 32.5464 74.5502 34.0047 73.6222 35.2926C72.7036 36.571 71.4347 37.5748 69.8153 38.304C68.2055 39.0331 66.3589 39.3977 64.2756 39.3977ZM90.0036 39.3977C88.1096 39.3977 86.4145 39.0426 84.9183 38.3324C83.4221 37.6127 82.2337 36.6278 81.353 35.3778C80.4818 34.1278 80.0178 32.6979 79.9609 31.0881H85.0746C85.1693 32.2812 85.6854 33.2566 86.6229 34.0142C87.5604 34.7623 88.6873 35.1364 90.0036 35.1364C91.0357 35.1364 91.9543 34.8996 92.7592 34.4261C93.5642 33.9527 94.1986 33.2945 94.6626 32.4517C95.1267 31.6089 95.3539 30.6477 95.3445 29.5682C95.3539 28.4697 95.1219 27.4943 94.6484 26.642C94.175 25.7898 93.5263 25.1222 92.7024 24.6392C91.8786 24.1468 90.9316 23.9006 89.8615 23.9006C88.9903 23.8911 88.1333 24.0521 87.2905 24.3835C86.4477 24.715 85.7801 25.1506 85.2876 25.6903L80.5291 24.9091L82.049 9.90909H98.924V14.3125H86.4098L85.5717 22.0256H85.7422C86.282 21.3911 87.0443 20.8655 88.0291 20.4489C89.014 20.0227 90.0935 19.8097 91.2678 19.8097C93.0291 19.8097 94.6011 20.2263 95.9837 21.0597C97.3662 21.8835 98.4553 23.0199 99.2507 24.4688C100.046 25.9176 100.444 27.5748 100.444 29.4403C100.444 31.3627 99.9988 33.0767 99.1087 34.5824C98.228 36.0786 97.0017 37.2576 95.4297 38.1193C93.8672 38.9716 92.0585 39.3977 90.0036 39.3977ZM115.856 39.3977C114.464 39.3883 113.105 39.1468 111.779 38.6733C110.453 38.1903 109.26 37.4091 108.2 36.3295C107.139 35.2405 106.296 33.7964 105.671 31.9972C105.046 30.1884 104.738 27.9489 104.748 25.2784C104.748 22.7879 105.013 20.5672 105.543 18.6165C106.074 16.6657 106.836 15.018 107.83 13.6733C108.825 12.3191 110.022 11.2869 111.424 10.5767C112.835 9.86648 114.412 9.51136 116.154 9.51136C117.982 9.51136 119.601 9.87121 121.012 10.5909C122.433 11.3106 123.578 12.2955 124.45 13.5455C125.321 14.786 125.861 16.1875 126.069 17.75H120.884C120.619 16.6326 120.075 15.7424 119.251 15.0795C118.436 14.4072 117.404 14.071 116.154 14.071C114.137 14.071 112.584 14.947 111.495 16.6989C110.415 18.4508 109.871 20.8561 109.862 23.9148H110.06C110.524 23.0814 111.126 22.3665 111.864 21.7699C112.603 21.1733 113.436 20.714 114.364 20.392C115.302 20.0606 116.291 19.8949 117.333 19.8949C119.038 19.8949 120.567 20.3021 121.921 21.1165C123.285 21.9309 124.364 23.053 125.16 24.483C125.955 25.9034 126.348 27.5322 126.339 29.3693C126.348 31.2822 125.913 33.0009 125.032 34.5256C124.151 36.0407 122.925 37.2339 121.353 38.1051C119.781 38.9763 117.949 39.4072 115.856 39.3977ZM115.827 35.1364C116.86 35.1364 117.783 34.8854 118.597 34.3835C119.412 33.8816 120.056 33.2045 120.529 32.3523C121.003 31.5 121.235 30.5436 121.225 29.483C121.235 28.4413 121.007 27.4991 120.543 26.6562C120.089 25.8134 119.459 25.1458 118.654 24.6534C117.849 24.161 116.931 23.9148 115.898 23.9148C115.131 23.9148 114.416 24.0616 113.754 24.3551C113.091 24.6487 112.513 25.0559 112.021 25.5767C111.528 26.0881 111.14 26.6847 110.856 27.3665C110.581 28.0388 110.439 28.7585 110.43 29.5256C110.439 30.5388 110.676 31.4716 111.14 32.3239C111.604 33.1761 112.243 33.858 113.058 34.3693C113.872 34.8807 114.795 35.1364 115.827 35.1364ZM141.481 39.3977C139.369 39.3977 137.494 39.0426 135.856 38.3324C134.227 37.6222 132.949 36.6515 132.021 35.4205C131.102 34.1799 130.647 32.7737 130.657 31.2017C130.647 29.9801 130.913 28.858 131.452 27.8352C131.992 26.8125 132.721 25.9602 133.64 25.2784C134.568 24.5871 135.6 24.1468 136.737 23.9574V23.7585C135.24 23.4271 134.028 22.6648 133.1 21.4716C132.182 20.2689 131.727 18.8816 131.737 17.3097C131.727 15.8134 132.144 14.4782 132.987 13.304C133.829 12.1297 134.985 11.2064 136.452 10.5341C137.92 9.85227 139.596 9.51136 141.481 9.51136C143.346 9.51136 145.008 9.85227 146.467 10.5341C147.934 11.2064 149.09 12.1297 149.933 13.304C150.785 14.4782 151.211 15.8134 151.211 17.3097C151.211 18.8816 150.742 20.2689 149.805 21.4716C148.877 22.6648 147.679 23.4271 146.211 23.7585V23.9574C147.347 24.1468 148.37 24.5871 149.279 25.2784C150.198 25.9602 150.927 26.8125 151.467 27.8352C152.016 28.858 152.29 29.9801 152.29 31.2017C152.29 32.7737 151.826 34.1799 150.898 35.4205C149.97 36.6515 148.692 37.6222 147.063 38.3324C145.444 39.0426 143.583 39.3977 141.481 39.3977ZM141.481 35.3352C142.57 35.3352 143.517 35.1506 144.322 34.7812C145.127 34.4025 145.752 33.8722 146.197 33.1903C146.642 32.5085 146.869 31.7225 146.879 30.8324C146.869 29.9044 146.628 29.0852 146.154 28.375C145.69 27.6553 145.051 27.0919 144.237 26.6847C143.432 26.2775 142.513 26.0739 141.481 26.0739C140.439 26.0739 139.511 26.2775 138.697 26.6847C137.882 27.0919 137.238 27.6553 136.765 28.375C136.301 29.0852 136.074 29.9044 136.083 30.8324C136.074 31.7225 136.291 32.5085 136.737 33.1903C137.182 33.8627 137.807 34.3883 138.612 34.767C139.426 35.1458 140.382 35.3352 141.481 35.3352ZM141.481 22.0824C142.371 22.0824 143.157 21.9025 143.839 21.5426C144.53 21.1828 145.075 20.6809 145.472 20.0369C145.87 19.393 146.074 18.6496 146.083 17.8068C146.074 16.9735 145.875 16.2443 145.487 15.6193C145.098 14.9848 144.558 14.4972 143.867 14.1562C143.176 13.8059 142.38 13.6307 141.481 13.6307C140.562 13.6307 139.753 13.8059 139.052 14.1562C138.361 14.4972 137.821 14.9848 137.433 15.6193C137.054 16.2443 136.869 16.9735 136.879 17.8068C136.869 18.6496 137.058 19.393 137.447 20.0369C137.844 20.6714 138.389 21.1733 139.08 21.5426C139.781 21.9025 140.581 22.0824 141.481 22.0824Z" fill="#161819"/>
<rect x="167" y="10" width="60" height="28" rx="14" fill="#EBFDEF"/>
<path d="M188.646 28V27.0483L191.171 24.5732C191.413 24.3293 191.614 24.1127 191.775 23.9233C191.936 23.7339 192.057 23.5504 192.137 23.3729C192.218 23.1953 192.258 23.0059 192.258 22.8047C192.258 22.575 192.206 22.3786 192.102 22.2152C191.997 22.0495 191.854 21.9216 191.672 21.8317C191.49 21.7417 191.282 21.6967 191.05 21.6967C190.811 21.6967 190.602 21.7464 190.422 21.8459C190.242 21.9429 190.102 22.0814 190.003 22.2614C189.906 22.4413 189.857 22.6555 189.857 22.9041H188.604C188.604 22.4425 188.709 22.0412 188.92 21.7003C189.13 21.3594 189.42 21.0954 189.79 20.9084C190.161 20.7214 190.588 20.6278 191.068 20.6278C191.556 20.6278 191.984 20.719 192.354 20.9013C192.723 21.0836 193.009 21.3333 193.213 21.6506C193.419 21.9678 193.522 22.33 193.522 22.7372C193.522 23.0095 193.47 23.277 193.366 23.5398C193.262 23.8026 193.078 24.0937 192.815 24.4134C192.555 24.733 192.189 25.12 191.718 25.5746L190.464 26.8494V26.8991H193.632V28H188.646ZM197.545 28.1385C196.961 28.1385 196.459 27.9905 196.04 27.6946C195.623 27.3963 195.302 26.9666 195.077 26.4055C194.855 25.8421 194.744 25.1638 194.744 24.3707C194.746 23.5777 194.858 22.9029 195.081 22.3466C195.306 21.7879 195.627 21.3617 196.043 21.0682C196.462 20.7746 196.963 20.6278 197.545 20.6278C198.128 20.6278 198.629 20.7746 199.048 21.0682C199.467 21.3617 199.787 21.7879 200.01 22.3466C200.235 22.9053 200.347 23.58 200.347 24.3707C200.347 25.1662 200.235 25.8456 200.01 26.4091C199.787 26.9702 199.467 27.3987 199.048 27.6946C198.631 27.9905 198.13 28.1385 197.545 28.1385ZM197.545 27.027C198 27.027 198.359 26.8033 198.621 26.3558C198.887 25.906 199.019 25.2443 199.019 24.3707C199.019 23.7931 198.959 23.3078 198.838 22.9148C198.717 22.5218 198.547 22.2259 198.327 22.027C198.107 21.8258 197.846 21.7251 197.545 21.7251C197.093 21.7251 196.736 21.95 196.473 22.3999C196.21 22.8473 196.078 23.5043 196.075 24.3707C196.073 24.9508 196.131 25.4384 196.249 25.8338C196.37 26.2292 196.54 26.5275 196.761 26.7287C196.981 26.9276 197.242 27.027 197.545 27.027ZM202.05 28.0781C201.835 28.0781 201.65 28.0024 201.496 27.8509C201.342 27.6993 201.266 27.5147 201.269 27.2969C201.266 27.0838 201.342 26.9015 201.496 26.75C201.65 26.5985 201.835 26.5227 202.05 26.5227C202.258 26.5227 202.44 26.5985 202.593 26.75C202.75 26.9015 202.829 27.0838 202.831 27.2969C202.829 27.4413 202.791 27.5727 202.718 27.6911C202.647 27.8094 202.552 27.9041 202.434 27.9751C202.318 28.0438 202.19 28.0781 202.05 28.0781ZM206.585 28.0994C206.111 28.0994 205.688 28.0107 205.314 27.8331C204.94 27.6532 204.642 27.407 204.422 27.0945C204.204 26.782 204.088 26.4245 204.074 26.022H205.353C205.376 26.3203 205.505 26.5642 205.74 26.7536C205.974 26.9406 206.256 27.0341 206.585 27.0341C206.843 27.0341 207.073 26.9749 207.274 26.8565C207.475 26.7382 207.634 26.5736 207.75 26.3629C207.866 26.1522 207.922 25.9119 207.92 25.642C207.922 25.3674 207.864 25.1236 207.746 24.9105C207.628 24.6974 207.466 24.5305 207.26 24.4098C207.054 24.2867 206.817 24.2251 206.549 24.2251C206.332 24.2228 206.117 24.263 205.907 24.3459C205.696 24.4287 205.529 24.5376 205.406 24.6726L204.216 24.4773L204.596 20.7273H208.815V21.8281H205.686L205.477 23.7564H205.52C205.654 23.5978 205.845 23.4664 206.091 23.3622C206.337 23.2557 206.607 23.2024 206.901 23.2024C207.341 23.2024 207.734 23.3066 208.08 23.5149C208.426 23.7209 208.698 24.005 208.897 24.3672C209.096 24.7294 209.195 25.1437 209.195 25.6101C209.195 26.0907 209.084 26.5192 208.861 26.8956C208.641 27.2696 208.334 27.5644 207.941 27.7798C207.551 27.9929 207.099 28.0994 206.585 28.0994ZM214.273 26.6364V26.2528C214.273 25.9711 214.332 25.7119 214.451 25.4751C214.571 25.2384 214.747 25.0478 214.976 24.9034C215.206 24.759 215.484 24.6868 215.811 24.6868C216.147 24.6868 216.429 24.759 216.656 24.9034C216.883 25.0455 217.055 25.2348 217.171 25.4716C217.289 25.7083 217.348 25.9687 217.348 26.2528V26.6364C217.348 26.9181 217.289 27.1773 217.171 27.4141C217.052 27.6508 216.878 27.8414 216.649 27.9858C216.422 28.1302 216.142 28.2024 215.811 28.2024C215.479 28.2024 215.199 28.1302 214.969 27.9858C214.739 27.8414 214.565 27.6508 214.447 27.4141C214.331 27.1773 214.273 26.9181 214.273 26.6364ZM215.2 26.2528V26.6364C215.2 26.8234 215.245 26.995 215.335 27.1513C215.425 27.3075 215.583 27.3857 215.811 27.3857C216.04 27.3857 216.198 27.3087 216.283 27.1548C216.371 26.9986 216.414 26.8258 216.414 26.6364V26.2528C216.414 26.0634 216.373 25.8906 216.29 25.7344C216.207 25.5758 216.047 25.4964 215.811 25.4964C215.588 25.4964 215.431 25.5758 215.338 25.7344C215.246 25.8906 215.2 26.0634 215.2 26.2528ZM210.576 22.4744V22.0909C210.576 21.8068 210.637 21.5464 210.757 21.3097C210.878 21.0729 211.053 20.8835 211.283 20.7415C211.513 20.5971 211.791 20.5249 212.118 20.5249C212.451 20.5249 212.732 20.5971 212.959 20.7415C213.189 20.8835 213.362 21.0729 213.478 21.3097C213.594 21.5464 213.652 21.8068 213.652 22.0909V22.4744C213.652 22.7585 213.592 23.0189 213.474 23.2557C213.358 23.4901 213.185 23.6783 212.956 23.8203C212.726 23.9624 212.447 24.0334 212.118 24.0334C211.784 24.0334 211.502 23.9624 211.272 23.8203C211.045 23.6783 210.872 23.4889 210.754 23.2521C210.636 23.0154 210.576 22.7562 210.576 22.4744ZM211.51 22.0909V22.4744C211.51 22.6638 211.554 22.8366 211.642 22.9929C211.732 23.1468 211.89 23.2237 212.118 23.2237C212.345 23.2237 212.501 23.1468 212.586 22.9929C212.674 22.8366 212.718 22.6638 212.718 22.4744V22.0909C212.718 21.9015 212.676 21.7287 212.593 21.5724C212.511 21.4138 212.352 21.3345 212.118 21.3345C211.893 21.3345 211.735 21.4138 211.645 21.5724C211.555 21.7311 211.51 21.9039 211.51 22.0909ZM210.981 28L215.981 20.7273H216.869L211.869 28H210.981Z" fill="#42AA65"/>
<g clip-path="url(#clip0_1_116)">
<path d="M179.689 20.1279L176.8 23.017C176.718 23.0994 176.672 23.2093 176.672 23.3265C176.672 23.4439 176.718 23.5537 176.8 23.6362L177.062 23.8985C177.145 23.9809 177.255 24.0263 177.372 24.0263C177.489 24.0263 177.603 23.9809 177.685 23.8985L179.374 22.2131L179.374 27.5678C179.374 27.8092 179.563 28 179.805 28L180.176 28C180.417 28 180.625 27.8092 180.625 27.5678L180.625 22.1939L182.324 23.8984C182.406 23.9808 182.513 24.0262 182.631 24.0262C182.748 24.0262 182.856 23.9808 182.939 23.8984L183.2 23.6361C183.283 23.5537 183.328 23.4438 183.328 23.3265C183.328 23.2093 183.282 23.0994 183.2 23.0169L180.311 20.1278C180.228 20.0451 180.117 19.9997 180 20C179.882 19.9997 179.772 20.0451 179.689 20.1279Z" fill="#42AA65"/>
</g>
<defs>
<clipPath id="clip0_1_116">
<rect width="8" height="8" fill="white" transform="translate(176 28) rotate(-90)"/>
</clipPath>
</defs>
</svg>
